<?xml version="1.0" encoding="UTF-8" standalone="no"?>
<svg
   xmlns:dc="http://purl.org/dc/elements/1.1/"
   xmlns:cc="http://creativecommons.org/ns#"
   xmlns:rdf="http://www.w3.org/1999/02/22-rdf-syntax-ns#"
   xmlns:svg="http://www.w3.org/2000/svg"
   xmlns="http://www.w3.org/2000/svg"
   viewBox="0 0 566.93335 90.706665"
   height="90.706665"
   width="566.93335"
   xml:space="preserve"
   id="svg2"
   version="1.1"><metadata
     id="metadata8"><rdf:RDF><cc:Work
         rdf:about=""><dc:format>image/svg+xml</dc:format><dc:type
           rdf:resource="http://purl.org/dc/dcmitype/StillImage" /></cc:Work></rdf:RDF></metadata><defs
     id="defs6"><clipPath
       id="clipPath18"
       clipPathUnits="userSpaceOnUse"><path
         id="path16"
         d="M 0,68.03 H 425.2 V 0 H 0 Z" /></clipPath></defs><g
     transform="matrix(1.3333333,0,0,-1.3333333,0,90.706667)"
     id="g10"><g
       id="g12"><g
         clip-path="url(#clipPath18)"
         id="g14"><g
           transform="translate(26.5605,38.8923)"
           id="g20"><path
             id="path22"
             style="fill:#434858;fill-opacity:1;fill-rule:nonzero;stroke:none"
             d="m 0,0 c 1.791,2.33 2.687,5.406 2.687,9.228 0,3.882 -0.896,6.99 -2.687,9.318 -1.792,2.33 -4.152,3.495 -7.078,3.495 h -9.228 c -0.24,0 -0.359,-0.122 -0.359,-0.359 V -3.135 c 0,-0.24 0.119,-0.358 0.359,-0.358 h 9.228 C -4.152,-3.493 -1.792,-2.329 0,0 M 3.583,21.637 C 6.15,18.501 7.436,14.394 7.436,9.318 7.436,4.241 6.166,0.18 3.628,-2.866 c -2.54,-3.046 -5.868,-4.57 -9.99,-4.57 h -9.944 c -0.24,0 -0.359,-0.12 -0.359,-0.358 v -27.863 c 0,-0.597 -0.3,-0.896 -0.896,-0.896 h -2.956 c -0.598,0 -0.896,0.299 -0.896,0.896 v 61.102 c 0,0.597 0.298,0.895 0.896,0.895 h 13.976 c 4.18,0 7.556,-1.567 10.124,-4.703" /></g><g
           transform="translate(48.7788,3.2351)"
           id="g24"><path
             id="path26"
             style="fill:#434858;fill-opacity:1;fill-rule:nonzero;stroke:none"
             d="m 0,0 v 60.923 c 0,0.596 0.297,0.896 0.896,0.896 h 2.956 c 0.596,0 0.896,-0.3 0.896,-0.896 V 3.674 c 0,-0.24 0.119,-0.359 0.357,-0.359 h 20.966 c 0.596,0 0.895,-0.299 0.895,-0.896 V 0 c 0,-0.597 -0.299,-0.896 -0.895,-0.896 H 0.896 C 0.297,-0.896 0,-0.597 0,0" /></g><g
           transform="translate(90.3037,5.6989)"
           id="g28"><path
             id="path30"
             style="fill:#434858;fill-opacity:1;fill-rule:nonzero;stroke:none"
             d="m 0,0 c -2.658,2.718 -3.987,6.346 -3.987,10.886 v 34.403 c 0,4.48 1.329,8.063 3.987,10.752 2.657,2.687 6.167,4.03 10.528,4.03 4.418,0 7.958,-1.343 10.617,-4.03 2.656,-2.689 3.985,-6.272 3.985,-10.752 v -1.703 c 0,-0.298 -0.088,-0.537 -0.268,-0.716 -0.179,-0.179 -0.389,-0.268 -0.627,-0.268 l -2.957,-0.181 c -0.597,0 -0.896,0.299 -0.896,0.897 v 2.24 c 0,3.104 -0.895,5.599 -2.687,7.482 -1.793,1.88 -4.181,2.82 -7.167,2.82 C 7.601,55.86 5.242,54.92 3.45,53.04 1.657,51.157 0.763,48.662 0.763,45.558 V 10.526 c 0,-3.105 0.894,-5.614 2.687,-7.525 1.792,-1.912 4.151,-2.866 7.078,-2.866 2.925,0 5.3,0.954 7.122,2.866 1.821,1.911 2.732,4.42 2.732,7.525 v 2.062 c 0,0.596 0.299,0.896 0.896,0.896 l 2.957,-0.18 c 0.597,0 0.895,-0.299 0.895,-0.895 V 10.886 C 25.13,6.346 23.801,2.718 21.145,0 18.486,-2.719 14.946,-4.076 10.528,-4.076 6.167,-4.076 2.657,-2.719 0,0" /></g><g
           transform="translate(142.3804,33.1643)"
           id="g32"><path
             id="path34"
             style="fill:#434858;fill-opacity:1;fill-rule:nonzero;stroke:none"
             d="m 0,0 c 0.383,0.493 0.575,1.151 0.575,1.973 0,0.822 -0.192,1.483 -0.575,1.984 -0.383,0.5 -0.884,0.75 -1.5,0.75 h -1.871 c -0.054,0 -0.082,-0.028 -0.082,-0.083 v -5.282 c 0,-0.054 0.028,-0.082 0.082,-0.082 H -1.5 c 0.616,0 1.117,0.246 1.5,0.74 M 1.11,4.881 C 1.727,4.148 2.035,3.186 2.035,1.994 2.035,0.815 1.733,-0.133 1.131,-0.853 0.527,-1.573 -0.267,-1.932 -1.254,-1.932 h -2.117 c -0.054,0 -0.082,-0.027 -0.082,-0.082 v -6.207 c 0,-0.138 -0.068,-0.205 -0.205,-0.205 h -1.049 c -0.137,0 -0.205,0.067 -0.205,0.205 V 5.776 c 0,0.136 0.068,0.205 0.205,0.205 h 3.392 c 1,0 1.808,-0.367 2.425,-1.1" /></g><g
           transform="translate(150.396,37.7678)"
           id="g36"><path
             id="path38"
             style="fill:#434858;fill-opacity:1;fill-rule:nonzero;stroke:none"
             d="m 0,0 v -5.2 c 0,-0.054 0.028,-0.082 0.083,-0.082 h 1.85 c 0.629,0 1.136,0.243 1.52,0.73 0.383,0.486 0.575,1.133 0.575,1.942 0,0.808 -0.192,1.459 -0.575,1.952 -0.384,0.494 -0.891,0.74 -1.52,0.74 H 0.083 C 0.028,0.082 0,0.055 0,0 M 4.049,-12.866 1.953,-6.515 C 1.939,-6.474 1.912,-6.454 1.87,-6.454 H 0.083 C 0.028,-6.454 0,-6.481 0,-6.536 v -6.289 c 0,-0.137 -0.069,-0.205 -0.205,-0.205 h -1.048 c -0.138,0 -0.206,0.068 -0.206,0.205 V 1.151 c 0,0.137 0.068,0.206 0.206,0.206 h 3.391 c 1,0 1.808,-0.367 2.425,-1.1 C 5.179,-0.476 5.488,-1.432 5.488,-2.61 5.488,-3.5 5.295,-4.268 4.912,-4.913 4.528,-5.556 4.008,-6.008 3.35,-6.268 3.295,-6.283 3.275,-6.317 3.289,-6.372 l 2.24,-6.432 0.02,-0.082 c 0,-0.096 -0.061,-0.144 -0.184,-0.144 h -1.07 c -0.123,0 -0.205,0.055 -0.246,0.164" /></g><g
           transform="translate(161.7617,28.7448)"
           id="g40"><path
             id="path42"
             style="fill:#434858;fill-opacity:1;fill-rule:nonzero;stroke:none"
             d="M 0,0 H 3.248 C 3.289,0 3.309,0.027 3.309,0.083 L 1.665,8.16 C 1.651,8.201 1.637,8.221 1.624,8.221 1.61,8.221 1.597,8.201 1.583,8.16 L -0.062,0.083 C -0.062,0.027 -0.041,0 0,0 m 4.111,-3.822 -0.514,2.549 c 0,0.027 -0.01,0.046 -0.031,0.061 -0.021,0.014 -0.045,0.021 -0.072,0.021 h -3.72 c -0.027,0 -0.051,-0.007 -0.071,-0.021 -0.021,-0.015 -0.032,-0.034 -0.032,-0.061 l -0.514,-2.549 c -0.013,-0.123 -0.089,-0.185 -0.225,-0.185 h -1.049 c -0.069,0 -0.12,0.021 -0.154,0.062 -0.034,0.041 -0.044,0.095 -0.031,0.164 l 3.083,13.976 c 0.027,0.123 0.103,0.185 0.226,0.185 H 2.24 c 0.137,0 0.213,-0.062 0.226,-0.185 L 5.591,-3.781 v -0.041 c 0,-0.123 -0.062,-0.185 -0.186,-0.185 H 4.337 c -0.123,0 -0.199,0.062 -0.226,0.185" /></g><g
           transform="translate(171.8423,25.5388)"
           id="g44"><path
             id="path46"
             style="fill:#434858;fill-opacity:1;fill-rule:nonzero;stroke:none"
             d="m 0,0 c -0.637,0.644 -0.956,1.508 -0.956,2.59 v 7.625 c 0,1.069 0.319,1.925 0.956,2.569 0.637,0.644 1.483,0.966 2.539,0.966 1.068,0 1.921,-0.318 2.559,-0.956 0.636,-0.637 0.955,-1.496 0.955,-2.579 V 9.866 C 6.053,9.729 5.984,9.66 5.848,9.66 L 4.778,9.598 c -0.136,0 -0.205,0.069 -0.205,0.206 v 0.514 c 0,0.644 -0.185,1.164 -0.555,1.562 -0.37,0.397 -0.863,0.596 -1.479,0.596 -0.603,0 -1.093,-0.199 -1.47,-0.596 C 0.692,11.482 0.504,10.962 0.504,10.318 V 2.467 c 0,-0.645 0.188,-1.165 0.565,-1.562 0.377,-0.397 0.867,-0.596 1.47,-0.596 0.616,0 1.109,0.199 1.479,0.596 0.37,0.397 0.555,0.917 0.555,1.562 V 2.98 c 0,0.137 0.069,0.207 0.205,0.207 l 1.07,-0.062 c 0.136,0 0.205,-0.069 0.205,-0.206 V 2.59 C 6.053,1.508 5.731,0.644 5.087,0 4.442,-0.644 3.593,-0.966 2.539,-0.966 1.483,-0.966 0.637,-0.644 0,0" /></g><g
           transform="translate(189.2817,38.9192)"
           id="g48"><path
             id="path50"
             style="fill:#434858;fill-opacity:1;fill-rule:nonzero;stroke:none"
             d="M 0,0 V -0.863 C 0,-1 -0.069,-1.069 -0.206,-1.069 h -2.712 c -0.056,0 -0.083,-0.028 -0.083,-0.082 v -12.825 c 0,-0.138 -0.069,-0.205 -0.205,-0.205 h -1.049 c -0.137,0 -0.205,0.067 -0.205,0.205 v 12.825 c 0,0.054 -0.027,0.082 -0.082,0.082 h -2.549 c -0.137,0 -0.206,0.069 -0.206,0.206 V 0 c 0,0.137 0.069,0.206 0.206,0.206 h 6.885 C -0.069,0.206 0,0.137 0,0" /></g><g
           transform="translate(193.8237,24.9431)"
           id="g52"><path
             id="path54"
             style="fill:#434858;fill-opacity:1;fill-rule:nonzero;stroke:none"
             d="m 0,0 v 13.976 c 0,0.137 0.068,0.206 0.205,0.206 h 1.049 c 0.136,0 0.205,-0.069 0.205,-0.206 V 0 c 0,-0.138 -0.069,-0.205 -0.205,-0.205 H 0.205 C 0.068,-0.205 0,-0.138 0,0" /></g><g
           transform="translate(201.2124,25.5388)"
           id="g56"><path
             id="path58"
             style="fill:#434858;fill-opacity:1;fill-rule:nonzero;stroke:none"
             d="m 0,0 c -0.637,0.644 -0.955,1.508 -0.955,2.59 v 7.625 c 0,1.069 0.318,1.925 0.955,2.569 0.637,0.644 1.483,0.966 2.539,0.966 1.068,0 1.921,-0.318 2.559,-0.956 0.636,-0.637 0.955,-1.496 0.955,-2.579 V 9.866 C 6.053,9.729 5.984,9.66 5.848,9.66 L 4.778,9.598 c -0.136,0 -0.205,0.069 -0.205,0.206 v 0.514 c 0,0.644 -0.185,1.164 -0.554,1.562 -0.371,0.397 -0.864,0.596 -1.48,0.596 -0.603,0 -1.093,-0.199 -1.47,-0.596 C 0.692,11.482 0.504,10.962 0.504,10.318 V 2.467 c 0,-0.645 0.188,-1.165 0.565,-1.562 0.377,-0.397 0.867,-0.596 1.47,-0.596 0.616,0 1.109,0.199 1.48,0.596 0.369,0.397 0.554,0.917 0.554,1.562 V 2.98 c 0,0.137 0.069,0.207 0.205,0.207 l 1.07,-0.062 c 0.136,0 0.205,-0.069 0.205,-0.206 V 2.59 C 6.053,1.508 5.731,0.644 5.087,0 4.442,-0.644 3.594,-0.966 2.539,-0.966 1.483,-0.966 0.637,-0.644 0,0" /></g><g
           transform="translate(213.144,28.7448)"
           id="g60"><path
             id="path62"
             style="fill:#434858;fill-opacity:1;fill-rule:nonzero;stroke:none"
             d="M 0,0 H 3.248 C 3.289,0 3.309,0.027 3.309,0.083 L 1.665,8.16 C 1.651,8.201 1.637,8.221 1.624,8.221 1.61,8.221 1.596,8.201 1.583,8.16 L -0.062,0.083 C -0.062,0.027 -0.041,0 0,0 m 4.111,-3.822 -0.514,2.549 c 0,0.027 -0.011,0.046 -0.031,0.061 -0.021,0.014 -0.045,0.021 -0.072,0.021 h -3.72 c -0.027,0 -0.051,-0.007 -0.071,-0.021 -0.021,-0.015 -0.032,-0.034 -0.032,-0.061 l -0.514,-2.549 c -0.013,-0.123 -0.089,-0.185 -0.225,-0.185 h -1.049 c -0.069,0 -0.12,0.021 -0.154,0.062 -0.034,0.041 -0.044,0.095 -0.031,0.164 l 3.083,13.976 c 0.027,0.123 0.103,0.185 0.226,0.185 H 2.24 c 0.137,0 0.213,-0.062 0.226,-0.185 L 5.59,-3.781 v -0.041 c 0,-0.123 -0.061,-0.185 -0.184,-0.185 h -1.07 c -0.123,0 -0.198,0.062 -0.225,0.185" /></g><g
           transform="translate(222.8447,24.9431)"
           id="g64"><path
             id="path66"
             style="fill:#434858;fill-opacity:1;fill-rule:nonzero;stroke:none"
             d="m 0,0 v 13.976 c 0,0.137 0.068,0.206 0.205,0.206 h 1.049 c 0.137,0 0.205,-0.069 0.205,-0.206 V 1.151 c 0,-0.055 0.027,-0.082 0.082,-0.082 H 6.248 C 6.385,1.069 6.453,1 6.453,0.863 V 0 c 0,-0.138 -0.068,-0.205 -0.205,-0.205 H 0.205 C 0.068,-0.205 0,-0.138 0,0" /></g><g
           transform="translate(239.8213,24.9431)"
           id="g68"><path
             id="path70"
             style="fill:#434858;fill-opacity:1;fill-rule:nonzero;stroke:none"
             d="m 0,0 v 13.976 c 0,0.137 0.068,0.206 0.206,0.206 h 1.048 c 0.137,0 0.205,-0.069 0.205,-0.206 V 1.151 c 0,-0.055 0.028,-0.082 0.083,-0.082 H 6.248 C 6.385,1.069 6.454,1 6.454,0.863 V 0 c 0,-0.138 -0.069,-0.205 -0.206,-0.205 H 0.206 C 0.068,-0.205 0,-0.138 0,0" /></g><g
           transform="translate(256.6338,37.8498)"
           id="g72"><path
             id="path74"
             style="fill:#434858;fill-opacity:1;fill-rule:nonzero;stroke:none"
             d="m 0,0 h -4.769 c -0.054,0 -0.082,-0.027 -0.082,-0.082 v -5.097 c 0,-0.055 0.028,-0.082 0.082,-0.082 h 3.001 c 0.137,0 0.206,-0.069 0.206,-0.205 V -6.35 c 0,-0.138 -0.069,-0.206 -0.206,-0.206 h -3.001 c -0.054,0 -0.082,-0.027 -0.082,-0.082 v -5.117 c 0,-0.056 0.028,-0.082 0.082,-0.082 H 0 c 0.137,0 0.205,-0.07 0.205,-0.206 v -0.864 c 0,-0.137 -0.068,-0.205 -0.205,-0.205 h -6.104 c -0.137,0 -0.206,0.068 -0.206,0.205 V 1.069 c 0,0.137 0.069,0.206 0.206,0.206 H 0 c 0.137,0 0.205,-0.069 0.205,-0.206 V 0.207 C 0.205,0.069 0.137,0 0,0" /></g><g
           transform="translate(263.0859,28.7448)"
           id="g76"><path
             id="path78"
             style="fill:#434858;fill-opacity:1;fill-rule:nonzero;stroke:none"
             d="M 0,0 H 3.248 C 3.288,0 3.31,0.027 3.31,0.083 L 1.665,8.16 C 1.651,8.201 1.638,8.221 1.624,8.221 1.609,8.221 1.597,8.201 1.582,8.16 L -0.062,0.083 C -0.062,0.027 -0.041,0 0,0 m 4.11,-3.822 -0.513,2.549 c 0,0.027 -0.01,0.046 -0.031,0.061 -0.021,0.014 -0.045,0.021 -0.072,0.021 h -3.72 c -0.028,0 -0.051,-0.007 -0.072,-0.021 -0.02,-0.015 -0.031,-0.034 -0.031,-0.061 l -0.514,-2.549 c -0.013,-0.123 -0.089,-0.185 -0.225,-0.185 h -1.049 c -0.069,0 -0.12,0.021 -0.154,0.062 -0.035,0.041 -0.044,0.095 -0.031,0.164 l 3.083,13.976 c 0.028,0.123 0.103,0.185 0.226,0.185 H 2.24 c 0.137,0 0.213,-0.062 0.226,-0.185 L 5.591,-3.781 v -0.041 c 0,-0.123 -0.062,-0.185 -0.186,-0.185 H 4.337 c -0.123,0 -0.199,0.062 -0.227,0.185" /></g><g
           transform="translate(274.3281,26.0124)"
           id="g80"><path
             id="path82"
             style="fill:#434858;fill-opacity:1;fill-rule:nonzero;stroke:none"
             d="m 0,0 1.809,0.02 c 0.602,0 1.086,0.233 1.449,0.699 0.362,0.466 0.551,1.095 0.564,1.89 v 6.619 c 0,0.808 -0.177,1.445 -0.534,1.911 -0.356,0.466 -0.85,0.698 -1.479,0.698 H 0 c -0.055,0 -0.082,-0.027 -0.082,-0.082 V 0.082 C -0.082,0.026 -0.055,0 0,0 m -1.542,-1.069 v 13.976 c 0,0.136 0.068,0.205 0.206,0.205 h 3.165 c 1.055,0 1.898,-0.346 2.527,-1.037 0.631,-0.693 0.947,-1.621 0.947,-2.786 V 2.548 C 5.303,1.383 4.987,0.454 4.356,-0.237 3.727,-0.929 2.884,-1.274 1.829,-1.274 h -3.165 c -0.138,0 -0.206,0.067 -0.206,0.205" /></g><g
           transform="translate(290.874,37.8498)"
           id="g84"><path
             id="path86"
             style="fill:#434858;fill-opacity:1;fill-rule:nonzero;stroke:none"
             d="m 0,0 h -4.769 c -0.054,0 -0.082,-0.027 -0.082,-0.082 v -5.097 c 0,-0.055 0.028,-0.082 0.082,-0.082 h 3.001 c 0.137,0 0.206,-0.069 0.206,-0.205 V -6.35 c 0,-0.138 -0.069,-0.206 -0.206,-0.206 h -3.001 c -0.054,0 -0.082,-0.027 -0.082,-0.082 v -5.117 c 0,-0.056 0.028,-0.082 0.082,-0.082 H 0 c 0.137,0 0.205,-0.07 0.205,-0.206 v -0.864 c 0,-0.137 -0.068,-0.205 -0.205,-0.205 h -6.104 c -0.137,0 -0.206,0.068 -0.206,0.205 V 1.069 c 0,0.137 0.069,0.206 0.206,0.206 H 0 c 0.137,0 0.205,-0.069 0.205,-0.206 V 0.207 C 0.205,0.069 0.137,0 0,0" /></g><g
           transform="translate(297.2041,37.7678)"
           id="g88"><path
             id="path90"
             style="fill:#434858;fill-opacity:1;fill-rule:nonzero;stroke:none"
             d="m 0,0 v -5.2 c 0,-0.054 0.027,-0.082 0.082,-0.082 h 1.85 c 0.63,0 1.136,0.243 1.52,0.73 0.384,0.486 0.576,1.133 0.576,1.942 0,0.808 -0.192,1.459 -0.576,1.952 -0.384,0.494 -0.89,0.74 -1.52,0.74 H 0.082 C 0.027,0.082 0,0.055 0,0 M 4.049,-12.866 1.952,-6.515 C 1.938,-6.474 1.911,-6.454 1.87,-6.454 H 0.082 C 0.027,-6.454 0,-6.481 0,-6.536 v -6.289 c 0,-0.137 -0.069,-0.205 -0.206,-0.205 h -1.048 c -0.138,0 -0.205,0.068 -0.205,0.205 V 1.151 c 0,0.137 0.067,0.206 0.205,0.206 h 3.392 c 1,0 1.807,-0.367 2.424,-1.1 C 5.179,-0.476 5.487,-1.432 5.487,-2.61 5.487,-3.5 5.295,-4.268 4.912,-4.913 4.527,-5.556 4.007,-6.008 3.35,-6.268 3.295,-6.283 3.274,-6.317 3.288,-6.372 l 2.24,-6.432 0.021,-0.082 c 0,-0.096 -0.062,-0.144 -0.185,-0.144 H 4.295 c -0.123,0 -0.205,0.055 -0.246,0.164" /></g><g
           transform="translate(307.6846,25.5808)"
           id="g92"><path
             id="path94"
             style="fill:#434858;fill-opacity:1;fill-rule:nonzero;stroke:none"
             d="m 0,0 c -0.63,0.671 -0.945,1.548 -0.945,2.631 v 0.472 c 0,0.137 0.068,0.206 0.206,0.206 h 1.007 c 0.136,0 0.206,-0.069 0.206,-0.206 V 2.692 c 0,-0.726 0.184,-1.312 0.554,-1.757 0.37,-0.446 0.85,-0.668 1.439,-0.668 0.576,0 1.055,0.212 1.438,0.636 0.384,0.425 0.576,0.988 0.576,1.686 0,0.466 -0.092,0.866 -0.277,1.202 C 4.019,4.127 3.779,4.422 3.484,4.675 3.189,4.929 2.7,5.315 2.015,5.837 1.33,6.343 0.788,6.778 0.392,7.142 -0.006,7.504 -0.331,7.94 -0.585,8.446 c -0.254,0.508 -0.38,1.104 -0.38,1.789 0,1.069 0.308,1.914 0.925,2.538 0.616,0.623 1.418,0.935 2.404,0.935 1.041,0 1.873,-0.339 2.497,-1.017 0.623,-0.679 0.935,-1.58 0.935,-2.703 V 9.474 C 5.796,9.337 5.729,9.269 5.591,9.269 H 4.563 c -0.137,0 -0.206,0.068 -0.206,0.205 v 0.535 c 0,0.725 -0.181,1.312 -0.544,1.757 -0.363,0.445 -0.846,0.668 -1.449,0.668 -0.548,0 -1,-0.196 -1.356,-0.585 C 0.651,11.458 0.474,10.906 0.474,10.194 0.474,9.769 0.553,9.395 0.71,9.073 0.867,8.751 1.104,8.446 1.419,8.159 1.734,7.871 2.199,7.494 2.816,7.028 3.639,6.425 4.252,5.936 4.655,5.559 5.06,5.183 5.371,4.771 5.591,4.326 5.811,3.88 5.92,3.342 5.92,2.713 5.92,1.589 5.598,0.688 4.954,0.01 4.31,-0.669 3.48,-1.008 2.467,-1.008 1.453,-1.008 0.631,-0.672 0,0" /></g><g
           transform="translate(323.7578,39.1247)"
           id="g96"><path
             id="path98"
             style="fill:#434858;fill-opacity:1;fill-rule:nonzero;stroke:none"
             d="m 0,0 h 1.048 c 0.137,0 0.205,-0.069 0.205,-0.206 v -13.976 c 0,-0.137 -0.068,-0.205 -0.205,-0.205 H 0 c -0.138,0 -0.206,0.068 -0.206,0.205 v 6.269 c 0,0.055 -0.027,0.082 -0.082,0.082 h -3.658 c -0.055,0 -0.082,-0.027 -0.082,-0.082 v -6.269 c 0,-0.137 -0.07,-0.205 -0.206,-0.205 h -1.048 c -0.138,0 -0.206,0.068 -0.206,0.205 V -0.206 C -5.488,-0.069 -5.42,0 -5.282,0 h 1.048 c 0.136,0 0.206,-0.069 0.206,-0.206 v -6.248 c 0,-0.055 0.027,-0.082 0.082,-0.082 h 3.658 c 0.055,0 0.082,0.027 0.082,0.082 v 6.248 C -0.206,-0.069 -0.138,0 0,0" /></g><g
           transform="translate(330.333,24.9431)"
           id="g100"><path
             id="path102"
             style="fill:#434858;fill-opacity:1;fill-rule:nonzero;stroke:none"
             d="m 0,0 v 13.976 c 0,0.137 0.068,0.206 0.206,0.206 h 1.048 c 0.137,0 0.206,-0.069 0.206,-0.206 V 0 c 0,-0.138 -0.069,-0.205 -0.206,-0.205 H 0.206 C 0.068,-0.205 0,-0.138 0,0" /></g><g
           transform="translate(342.0078,33.1643)"
           id="g104"><path
             id="path106"
             style="fill:#434858;fill-opacity:1;fill-rule:nonzero;stroke:none"
             d="m 0,0 c 0.383,0.493 0.575,1.151 0.575,1.973 0,0.822 -0.192,1.483 -0.575,1.984 -0.384,0.5 -0.884,0.75 -1.5,0.75 h -1.871 c -0.055,0 -0.082,-0.028 -0.082,-0.083 v -5.282 c 0,-0.054 0.027,-0.082 0.082,-0.082 H -1.5 c 0.616,0 1.116,0.246 1.5,0.74 M 1.109,4.881 C 1.727,4.148 2.034,3.186 2.034,1.994 2.034,0.815 1.733,-0.133 1.13,-0.853 0.527,-1.573 -0.268,-1.932 -1.254,-1.932 h -2.117 c -0.055,0 -0.082,-0.027 -0.082,-0.082 v -6.207 c 0,-0.138 -0.068,-0.205 -0.205,-0.205 h -1.049 c -0.137,0 -0.205,0.067 -0.205,0.205 V 5.776 c 0,0.136 0.068,0.205 0.205,0.205 h 3.392 c 1,0 1.808,-0.367 2.424,-1.1" /></g><g
           transform="translate(355.6445,25.5388)"
           id="g108"><path
             id="path110"
             style="fill:#434858;fill-opacity:1;fill-rule:nonzero;stroke:none"
             d="m 0,0 c -0.637,0.644 -0.955,1.508 -0.955,2.59 v 7.625 c 0,1.069 0.318,1.925 0.955,2.569 0.637,0.644 1.483,0.966 2.538,0.966 1.068,0 1.922,-0.318 2.56,-0.956 0.636,-0.637 0.955,-1.496 0.955,-2.579 V 9.866 C 6.053,9.729 5.984,9.66 5.848,9.66 L 4.778,9.598 c -0.136,0 -0.205,0.069 -0.205,0.206 v 0.514 c 0,0.644 -0.184,1.164 -0.554,1.562 -0.371,0.397 -0.864,0.596 -1.481,0.596 -0.602,0 -1.092,-0.199 -1.469,-0.596 C 0.691,11.482 0.504,10.962 0.504,10.318 V 2.467 c 0,-0.645 0.187,-1.165 0.565,-1.562 0.377,-0.397 0.867,-0.596 1.469,-0.596 0.617,0 1.11,0.199 1.481,0.596 0.37,0.397 0.554,0.917 0.554,1.562 V 2.98 c 0,0.137 0.069,0.207 0.205,0.207 l 1.07,-0.062 c 0.136,0 0.205,-0.069 0.205,-0.206 V 2.59 C 6.053,1.508 5.731,0.644 5.087,0 4.442,-0.644 3.594,-0.966 2.538,-0.966 1.483,-0.966 0.637,-0.644 0,0" /></g><g
           transform="translate(372.0557,39.1247)"
           id="g112"><path
             id="path114"
             style="fill:#434858;fill-opacity:1;fill-rule:nonzero;stroke:none"
             d="m 0,0 h 1.049 c 0.137,0 0.205,-0.069 0.205,-0.206 v -13.976 c 0,-0.137 -0.068,-0.205 -0.205,-0.205 H 0 c -0.137,0 -0.205,0.068 -0.205,0.205 v 6.269 c 0,0.055 -0.027,0.082 -0.082,0.082 h -3.658 c -0.055,0 -0.083,-0.027 -0.083,-0.082 v -6.269 c 0,-0.137 -0.069,-0.205 -0.205,-0.205 h -1.048 c -0.138,0 -0.206,0.068 -0.206,0.205 v 13.976 c 0,0.137 0.068,0.206 0.206,0.206 h 1.048 c 0.136,0 0.205,-0.069 0.205,-0.206 v -6.248 c 0,-0.055 0.028,-0.082 0.083,-0.082 h 3.658 c 0.055,0 0.082,0.027 0.082,0.082 v 6.248 C -0.205,-0.069 -0.137,0 0,0" /></g><g
           transform="translate(379.4746,25.6618)"
           id="g116"><path
             id="path118"
             style="fill:#434858;fill-opacity:1;fill-rule:nonzero;stroke:none"
             d="m 0,0 c -0.645,0.727 -0.966,1.686 -0.966,2.878 v 10.379 c 0,0.137 0.069,0.206 0.206,0.206 h 1.047 c 0.138,0 0.206,-0.069 0.206,-0.206 V 2.713 C 0.493,1.96 0.682,1.35 1.059,0.884 1.435,0.419 1.932,0.186 2.549,0.186 c 0.63,0 1.137,0.233 1.52,0.698 0.384,0.466 0.576,1.076 0.576,1.829 v 10.544 c 0,0.137 0.068,0.206 0.206,0.206 h 1.047 c 0.137,0 0.206,-0.069 0.206,-0.206 V 2.878 C 6.104,1.686 5.778,0.727 5.128,0 4.477,-0.726 3.617,-1.089 2.549,-1.089 1.493,-1.089 0.645,-0.726 0,0" /></g><g
           transform="translate(392.2383,37.7678)"
           id="g120"><path
             id="path122"
             style="fill:#434858;fill-opacity:1;fill-rule:nonzero;stroke:none"
             d="m 0,0 v -5.2 c 0,-0.054 0.027,-0.082 0.082,-0.082 h 1.851 c 0.629,0 1.136,0.243 1.52,0.73 0.383,0.486 0.575,1.133 0.575,1.942 0,0.808 -0.192,1.459 -0.575,1.952 -0.384,0.494 -0.891,0.74 -1.52,0.74 H 0.082 C 0.027,0.082 0,0.055 0,0 M 4.049,-12.866 1.952,-6.515 C 1.939,-6.474 1.911,-6.454 1.87,-6.454 H 0.082 C 0.027,-6.454 0,-6.481 0,-6.536 v -6.289 c 0,-0.137 -0.068,-0.205 -0.205,-0.205 h -1.049 c -0.137,0 -0.205,0.068 -0.205,0.205 V 1.151 c 0,0.137 0.068,0.206 0.205,0.206 h 3.392 c 1,0 1.808,-0.367 2.424,-1.1 C 5.179,-0.476 5.487,-1.432 5.487,-2.61 5.487,-3.5 5.296,-4.268 4.912,-4.913 4.528,-5.556 4.008,-6.008 3.35,-6.268 3.295,-6.283 3.275,-6.317 3.288,-6.372 l 2.241,-6.432 0.02,-0.082 c 0,-0.096 -0.062,-0.144 -0.185,-0.144 H 4.295 c -0.123,0 -0.205,0.055 -0.246,0.164" /></g><g
           transform="translate(402.8545,25.5388)"
           id="g124"><path
             id="path126"
             style="fill:#434858;fill-opacity:1;fill-rule:nonzero;stroke:none"
             d="m 0,0 c -0.638,0.644 -0.956,1.508 -0.956,2.59 v 7.625 c 0,1.069 0.318,1.925 0.956,2.569 0.637,0.644 1.482,0.966 2.538,0.966 1.068,0 1.921,-0.318 2.559,-0.956 0.637,-0.637 0.956,-1.496 0.956,-2.579 V 9.866 C 6.053,9.729 5.983,9.66 5.847,9.66 L 4.778,9.598 c -0.136,0 -0.206,0.069 -0.206,0.206 v 0.514 c 0,0.644 -0.184,1.164 -0.554,1.562 -0.371,0.397 -0.864,0.596 -1.48,0.596 -0.602,0 -1.093,-0.199 -1.47,-0.596 C 0.691,11.482 0.503,10.962 0.503,10.318 V 2.467 c 0,-0.645 0.188,-1.165 0.565,-1.562 0.377,-0.397 0.868,-0.596 1.47,-0.596 0.616,0 1.109,0.199 1.48,0.596 0.37,0.397 0.554,0.917 0.554,1.562 V 2.98 c 0,0.137 0.07,0.207 0.206,0.207 L 5.847,3.125 c 0.136,0 0.206,-0.069 0.206,-0.206 V 2.59 C 6.053,1.508 5.73,0.644 5.086,0 4.442,-0.644 3.593,-0.966 2.538,-0.966 1.482,-0.966 0.637,-0.644 0,0" /></g><g
           transform="translate(419.2656,39.1247)"
           id="g128"><path
             id="path130"
             style="fill:#434858;fill-opacity:1;fill-rule:nonzero;stroke:none"
             d="m 0,0 h 1.049 c 0.136,0 0.205,-0.069 0.205,-0.206 v -13.976 c 0,-0.137 -0.069,-0.205 -0.205,-0.205 H 0 c -0.137,0 -0.205,0.068 -0.205,0.205 v 6.269 c 0,0.055 -0.027,0.082 -0.083,0.082 h -3.658 c -0.055,0 -0.082,-0.027 -0.082,-0.082 v -6.269 c 0,-0.137 -0.07,-0.205 -0.205,-0.205 h -1.049 c -0.137,0 -0.205,0.068 -0.205,0.205 v 13.976 c 0,0.137 0.068,0.206 0.205,0.206 h 1.049 c 0.135,0 0.205,-0.069 0.205,-0.206 v -6.248 c 0,-0.055 0.027,-0.082 0.082,-0.082 h 3.658 c 0.056,0 0.083,0.027 0.083,0.082 v 6.248 C -0.205,-0.069 -0.137,0 0,0" /></g></g></g></g></svg>